<svg width="192" height="192" viewBox="0 0 192 192" fill="none" xmlns="http://www.w3.org/2000/svg">
<g clip-path="url(#clip0)">
<path d="M63.9948 105.441V128.49C81.0417 128.469 97.3846 121.688 109.439 109.634C121.493 97.5796 128.274 81.2368 128.294 64.1898H105.246C105.232 75.1259 100.881 85.6102 93.1483 93.3433C85.4152 101.076 74.9309 105.427 63.9948 105.441Z" fill="#3BE081"/>
<path d="M63.995 168.933C53.1376 168.933 42.7248 164.619 35.0474 156.942C27.37 149.265 23.0569 138.852 23.0569 127.994C23.0569 117.137 27.37 106.724 35.0474 99.0468C42.7248 91.3694 53.1376 87.0562 63.995 87.0562V64.1767C55.611 64.1648 47.3066 65.8043 39.5562 69.0017C31.8057 72.199 24.7609 76.8917 18.824 82.8116C12.8871 88.7316 8.17435 95.763 4.95484 103.504C1.73533 111.246 0.072101 119.545 0.0601237 127.929C0.0481465 136.313 1.68766 144.618 4.88504 152.368C8.08242 160.119 12.7751 167.163 18.695 173.1C24.615 179.037 31.6464 183.75 39.3876 186.969C47.1289 190.189 55.4286 191.852 63.8126 191.864H63.995V168.933Z" fill="#0037FF"/>
<path d="M63.9948 168.933V191.812C80.9272 191.812 97.166 185.086 109.139 173.113C121.112 161.14 127.838 144.901 127.838 127.968H104.933C104.926 138.826 100.612 149.238 92.9364 156.918C85.2612 164.598 74.8525 168.919 63.9948 168.933Z" fill="#00CCFF"/>
<path d="M63.9948 41.2842V64.1637C80.9272 64.1637 97.166 57.4373 109.139 45.4643C121.112 33.4913 127.838 17.2524 127.838 0.320007H104.933C104.926 11.1778 100.612 21.5892 92.9364 29.2693C85.2612 36.9493 74.8525 41.2704 63.9948 41.2842Z" fill="#861DFF"/>
<path d="M128.216 41.2842V64.1637C145.149 64.1637 161.388 57.4373 173.361 45.4643C185.334 33.4913 192.06 17.2524 192.06 0.320007H169.167C169.161 11.18 164.844 21.5934 157.166 29.2739C149.488 36.9543 139.076 41.2739 128.216 41.2842Z" fill="#FC7F10"/>
</g>
<defs>
<clipPath id="clip0">
<rect width="192" height="192" fill="white"/>
</clipPath>
</defs>
</svg>
